<?xml version="1.0" encoding="UTF-8"?>
<svg id="Logo" xmlns="http://www.w3.org/2000/svg" version="1.1" viewBox="0 0 700 700">
  <!-- Generator: Adobe Illustrator 29.1.0, SVG Export Plug-In . SVG Version: 2.1.0 Build 142)  -->
  <defs>
    <style>
      .st0 {
        fill: #fff;
      }

      .st1 {
        fill: #0866ff;
      }
    </style>
  </defs>
  <g id="Logo1" data-name="Logo">
    <path id="Initiator" class="st1" d="M700,350C700,156.7,543.3,0,350,0S0,156.7,0,350s113,301.9,265.4,339.7v-232.7h-72.2v-107h72.2v-46.1c0-119.1,53.9-174.3,170.9-174.3s60.4,4.3,76.1,8.7v97c-8.3-.9-22.6-1.3-40.4-1.3-57.4,0-79.6,21.7-79.6,78.3v37.8h114.3l-19.6,107h-94.7v240.5c173.3-20.9,307.6-168.5,307.6-347.4Z"/>
    <path id="F" class="st0" d="M487.1,457l19.6-107h-114.3v-37.8c0-56.5,22.2-78.3,79.6-78.3s32.2.4,40.4,1.3v-97c-15.7-4.3-53.9-8.7-76.1-8.7-117,0-170.9,55.2-170.9,174.3v46.1h-72.2v107h72.2v232.7c27.1,6.7,55.4,10.3,84.6,10.3s28.5-.9,42.4-2.6v-240.5h94.7Z"/>
  </g>
</svg>