<?xml version="1.0" encoding="UTF-8"?>
<svg id="Layer_1" xmlns="http://www.w3.org/2000/svg" version="1.1" xmlns:xlink="http://www.w3.org/1999/xlink" viewBox="0 0 800 800">
  <!-- Generator: Adobe Illustrator 29.1.0, SVG Export Plug-In . SVG Version: 2.1.0 Build 142)  -->
  <defs>
    <style>
      .st0 {
        fill: #fff;
      }

      .st1 {
        fill: url(#Sfumatura_senza_nome_31);
      }
    </style>
    <linearGradient id="Sfumatura_senza_nome_31" data-name="Sfumatura senza nome 31" x1="18.3" y1="18.3" x2="781.7" y2="781.7" gradientUnits="userSpaceOnUse">
      <stop offset="0" stop-color="#ab00e4"/>
      <stop offset=".5" stop-color="#e50099"/>
      <stop offset="1" stop-color="#e5ac00"/>
    </linearGradient>
  </defs>
  <rect class="st0" x="116.5" y="116.5" width="566.9" height="566.9"/>
  <path class="st1" d="M400,481.9c45.1,0,82.1-36.8,82.1-82.1s-5.8-34.4-15.5-47.9c-14.9-20.6-39.1-34.2-66.4-34.2s-51.5,13.5-66.4,34.2c-9.6,13.5-15.5,30-15.5,47.9-.2,45.3,36.6,82.1,81.7,82.1ZM737.5,0H62.5C28,0,0,28,0,62.5v675c0,34.5,28,62.5,62.5,62.5h675c34.5,0,62.5-28,62.5-62.5V62.5c0-34.5-28-62.5-62.5-62.5ZM631.2,352.5v189.3c0,49.3-40.1,89.4-89.4,89.4h-283.6c-49.3,0-89.4-40.1-89.4-89.4v-283.8c0-49.3,40.1-89.4,89.4-89.4h283.6c49.3,0,89.4,40.1,89.4,89.4v94.5ZM542.2,213.6h-283.6c-24.4,0-44.3,19.9-44.3,44.3v94.6h-.4v189.3c0,24.4,19.9,44.3,44.3,44.3h283.6c24.4,0,44.3-19.9,44.3-44.3v-94.6h.4v-189.3c0-24.4-19.9-44.3-44.3-44.3ZM400,526.4c-53.1,0-98.6-32.9-117.3-79.3h.6c-6.1-14.6-9.4-30.7-9.4-47.5,0-69.7,56.7-126.4,126.4-126.4s98.6,32.9,117.3,79.3h-.6c6.1,14.6,9.4,30.7,9.4,47.5,0,69.7-56.7,126.4-126.4,126.4ZM538.5,287.6c-14.4,0-26.1-11.7-26.1-26.1s11.7-26.1,26.1-26.1,26.1,11.7,26.1,26.1-11.7,26.1-26.1,26.1Z"/>
</svg>