<?xml version="1.0" encoding="UTF-8"?>
<svg id="Livello_1" xmlns="http://www.w3.org/2000/svg" version="1.1" viewBox="0 0 800 800">
  <!-- Generator: Adobe Illustrator 29.1.0, SVG Export Plug-In . SVG Version: 2.1.0 Build 142)  -->
  <defs>
    <style>
      .st0, .st1 {
        fill: #010101;
      }

      .st1, .st2, .st3, .st4 {
        fill-rule: evenodd;
      }

      .st2 {
        fill: #69c9d0;
      }

      .st3 {
        fill: #fff;
      }

      .st4 {
        fill: #ee1d52;
      }
    </style>
  </defs>
  <path class="st1" d="M80,0h640C764.2,0,800,35.8,800,80v640c0,44.2-35.8,80-80,80H80c-44.2,0-80-35.8-80-80V80C0,35.8,35.8,0,80,0Z"/>
  <ellipse class="st0" cx="495.4" cy="692.3" rx="21.4" ry="21.3"/>
  <g>
    <path class="st4" d="M502.5,333.2c31,22.2,69,35.2,110.1,35.2v-78.9c-7.8,0-15.5-.8-23.1-2.4v62.1c-41,0-79-13-110.1-35.2v161.1c0,80.6-65.4,145.9-146,145.9s-58-9.1-81.3-24.7c26.5,27.1,63.5,43.9,104.4,43.9,80.6,0,146-65.3,146-145.9v-161.1h0ZM531,253.6c-15.9-17.3-26.3-39.7-28.5-64.4v-10.2h-21.9c5.5,31.4,24.3,58.3,50.4,74.6h0ZM303.1,534.5c-8.9-11.6-13.6-25.8-13.6-40.4,0-36.9,29.9-66.7,66.8-66.7,6.9,0,13.7,1,20.3,3.1v-80.7c-7.7-1-15.4-1.5-23.1-1.3v62.8c-6.6-2.1-13.4-3.1-20.3-3.1-36.9,0-66.8,29.9-66.8,66.8s14.9,48.6,36.7,59.6Z"/>
    <path class="st3" d="M479.4,314c31,22.2,69,35.2,110.1,35.2v-62.1c-22.9-4.9-43.2-16.8-58.4-33.5-26.1-16.3-44.9-43.1-50.4-74.6h-57.5v315.3c-.1,36.8-30,66.5-66.8,66.5s-41-10.3-53.2-26.3c-21.8-11-36.7-33.6-36.7-59.6,0-36.9,29.9-66.8,66.8-66.8s13.9,1.1,20.3,3.1v-62.8c-79.2,1.6-142.9,66.3-142.9,145.9s15.9,75.7,41.6,102c23.2,15.6,51.2,24.7,81.3,24.7,80.6,0,146-65.3,146-145.9v-161.1Z"/>
    <path class="st2" d="M589.5,287v-16.8c-20.7,0-40.9-5.8-58.4-16.7,15.5,17,35.9,28.7,58.4,33.5ZM480.6,179c-.5-3-.9-6-1.2-9.1v-10.2h-79.4v315.3c-.1,36.8-30,66.5-66.8,66.5s-21-2.6-30-7.1c12.2,16,31.5,26.3,53.2,26.3,36.8,0,66.7-29.8,66.8-66.5V179h57.5ZM353.4,348.4v-17.9c-6.6-.9-13.3-1.4-20-1.4-80.6,0-146,65.3-146,145.9s25.7,95.1,64.7,121.2c-25.7-26.3-41.6-62.3-41.6-102,0-79.6,63.7-144.3,142.9-145.9h0Z"/>
  </g>
</svg>