<?xml version="1.0" encoding="UTF-8"?>
<svg id="Layer_1" xmlns="http://www.w3.org/2000/svg" version="1.1" viewBox="0 0 255.1 255.1">
  <!-- Generator: Adobe Illustrator 29.1.0, SVG Export Plug-In . SVG Version: 2.1.0 Build 142)  -->
  <defs>
    <style>
      .st0 {
        fill: #fff;
      }

      .st1 {
        fill: red;
      }
    </style>
  </defs>
  <path class="st1" d="M249.8,66.2c-2.9-11-11.6-19.6-22.6-22.6-19.9-5.3-99.7-5.3-99.7-5.3,0,0-79.8,0-99.7,5.3-11,2.9-19.6,11.6-22.6,22.6C0,86,0,127.6,0,127.6c0,0,0,41.5,5.3,61.4,2.9,11,11.6,19.6,22.6,22.6,19.9,5.3,99.7,5.3,99.7,5.3,0,0,79.8,0,99.7-5.3,11-2.9,19.6-11.6,22.6-22.6,5.3-19.9,5.3-61.4,5.3-61.4,0,0,0-41.5-5.3-61.4Z"/>
  <polygon class="st0" points="102 165.8 168.3 127.6 102 89.3 102 165.8"/>
</svg>