<?xml version="1.0" encoding="UTF-8"?>
<svg id="Layer_1" xmlns="http://www.w3.org/2000/svg" version="1.1" viewBox="0 0 800 800">
  <!-- Generator: Adobe Illustrator 29.1.0, SVG Export Plug-In . SVG Version: 2.1.0 Build 142)  -->
  <defs>
    <style>
      .st0 {
        fill: #fff;
        stroke: #000;
        stroke-miterlimit: 10;
      }

      .st1 {
        fill: #e50000;
      }
    </style>
  </defs>
  <rect class="st0" x="116.5" y="116.5" width="566.9" height="566.9"/>
  <g>
    <polygon class="st1" points="346.7 477 477.7 400.2 346.7 323.3 346.7 477"/>
    <path class="st1" d="M737.5,0H62.5C28,0,0,28,0,62.5v675c0,34.5,28,62.5,62.5,62.5h675c34.5,0,62.5-28,62.5-62.5V62.5C800,28,772,0,737.5,0ZM600,471.6h0c0,68.9-68.9,68.9-68.9,68.9h-262.2c-68.9,0-68.9-68.9-68.9-68.9v-143c0-68.9,68.9-68.9,68.9-68.9h262.2c68.9,0,68.9,68.9,68.9,68.9v143Z"/>
  </g>
</svg>